# xmcd CD database file
#
# Track frame offsets:
#	150
#	6934
#	20470
#	38491
#	59338
#	70191
#	90210
#	109382
#	125039
#	141809
#	164048
#	180468
#	201748
#	218397
#	223197
#	234681
#	253909
#
# Disc length: 3664 seconds
#
# Revision: 1
# Processed by: cddbd v1.5.2PL0 Copyright (c) Steve Scherf et al.
# Submitted via: CDex 1.70beta2
#
DISCID=fd0e4e11
DTITLE=Busdriver - Fear of a Black Tangent
DYEAR=2005
DGENRE=Hip-Hop
TTITLE0=Yawning Zeitgeist Intro (Freestyle)
TTITLE1=Reheated Pop!
TTITLE2=Unemployed Black Astronaut
TTITLE3=Happiness('s Unit of Measurement)
TTITLE4=Avantcore
TTITLE5=Wormholes
TTITLE6=Map Your Psyche (featuring Abstract Rude and Ellay Khule)
TTITLE7=Cool Band Buzz
TTITLE8=Note Boom
TTITLE9=Low Flying Winged Boots
TTITLE10=Befriend The Friendless Friendster
TTITLE11=Sphinx's Coonery (featuring Mikah-9 and 2Mex)
TTITLE12=Lefty's Lament
TTITLE13=(Blank)
TTITLE14=Avantcore (D-Styles Remix)
TTITLE15=Happiness ('s Unit Of Measurement) (Prefuse 73 Remix)
TTITLE16=Unemployed Black Astronaut (Nobody Remix)
EXTD=YEAR: 2005
EXTT0=
EXTT1=
EXTT2=
EXTT3=
EXTT4=
EXTT5=
EXTT6=
EXTT7=
EXTT8=
EXTT9=
EXTT10=
EXTT11=
EXTT12=
EXTT13=
EXTT14=
EXTT15=
EXTT16=
PLAYORDER=
